<?xml version="1.0" standalone="yes"?>
<svg xmlns="http://www.w3.org/2000/svg" width="500" height="500">
<path style="fill:#272727; stroke:none;" d="M0 0L0 500L500 500L500 0L0 0z"/>
<path style="fill:#97938d; stroke:none;" d="M160 122L160 123L260 123L229 122L160 122z"/>
<path style="fill:#6c6a67; stroke:none;" d="M260 122L260 123L268 123L260 122z"/>
<path style="fill:#ede7db; stroke:none;" d="M160 123L160 370L245 370C271.072 370 297.902 369.76 320 353.96C346.242 335.196 360.074 291.972 335.907 266.004C321.383 250.398 295.716 244.172 275 244C279.819 239.809 287.971 240.189 294 238.254C304.841 234.775 314.509 228.036 321.471 219C344.041 189.705 328.95 144.715 297 130.312C278.488 121.967 258.792 123 239 123L160 123z"/>
<path style="fill:#b4b0a8; stroke:none;" d="M271 123L272 124L271 123z"/>
<path style="fill:#97938d; stroke:none;" d="M272 123L273 124L272 123z"/>
<path style="fill:#6c6a67; stroke:none;" d="M273.667 123.333L274.333 123.667L273.667 123.333z"/>
<path style="fill:#b4b0a8; stroke:none;" d="M277 124L278 125L277 124z"/>
<path style="fill:#97938d; stroke:none;" d="M278 124L279 125L278 124z"/>
<path style="fill:#6c6a67; stroke:none;" d="M279.667 124.333L280.333 124.667L279.667 124.333z"/>
<path style="fill:#b4b0a8; stroke:none;" d="M283 125L284 126L283 125z"/>
<path style="fill:#97938d; stroke:none;" d="M284 125L285 126L284 125z"/>
<path style="fill:#6c6a67; stroke:none;" d="M285 125L286 126L285 125z"/>
<path style="fill:#b4b0a8; stroke:none;" d="M286 126L287 127L286 126z"/>
<path style="fill:#97938d; stroke:none;" d="M287 126L288 127L287 126M195 127L196 128L195 127z"/>
<path style="fill:#6c6a67; stroke:none;" d="M252 241L252 240L196 240L196 128L249 128C238.496 123.592 220.42 127 209 127C205.684 127 198.368 125.649 196.028 128.603C193.221 132.148 195 141.68 195 146L195 193L195 227C195 230.328 193.825 236.615 196.028 239.397C198.468 242.478 206.524 241 210 241L252 241z"/>
<path style="fill:#97938d; stroke:none;" d="M249.667 127.333L250.333 127.667L249.667 127.333z"/>
<path style="fill:#b4b0a8; stroke:none;" d="M251 127L252 128L251 127M289 127L290 128L289 127z"/>
<path style="fill:#97938d; stroke:none;" d="M290 127L291 128L290 127z"/>
<path style="fill:#272727; stroke:none;" d="M196 128L196 240C220.16 240 252.188 245.701 274 233.687C308.065 214.924 306.621 157.03 275 136.548C253.043 122.325 220.958 128 196 128z"/>
<path style="fill:#6c6a67; stroke:none;" d="M254 128L255 129L254 128z"/>
<path style="fill:#97938d; stroke:none;" d="M255 128L256 129L255 128z"/>
<path style="fill:#b4b0a8; stroke:none;" d="M256 128L257 129L256 128M292 128L293 129L292 128z"/>
<path style="fill:#6c6a67; stroke:none;" d="M293 128L294 129L293 128M258 129L259 130L258 129z"/>
<path style="fill:#97938d; stroke:none;" d="M259 129L260 130L259 129z"/>
<path style="fill:#b4b0a8; stroke:none;" d="M260 129L261 130L260 129z"/>
<path style="fill:#97938d; stroke:none;" d="M295 129L296 130L295 129z"/>
<path style="fill:#6c6a67; stroke:none;" d="M262 130L263 131L262 130z"/>
<path style="fill:#97938d; stroke:none;" d="M263 130L264 131L263 130z"/>
<path style="fill:#b4b0a8; stroke:none;" d="M297 130L298 131L297 130z"/>
<path style="fill:#6c6a67; stroke:none;" d="M298 130L299 131L298 130M265 131L266 132L265 131z"/>
<path style="fill:#b4b0a8; stroke:none;" d="M266 131L267 132L266 131M299 131L300 132L299 131z"/>
<path style="fill:#6c6a67; stroke:none;" d="M300 131L301 132L300 131M267 132L268 133L267 132z"/>
<path style="fill:#b4b0a8; stroke:none;" d="M268 132L269 133L268 132M301 132L302 133L301 132z"/>
<path style="fill:#6c6a67; stroke:none;" d="M269 133L270 134L269 133z"/>
<path style="fill:#b4b0a8; stroke:none;" d="M270 133L271 134L270 133z"/>
<path style="fill:#97938d; stroke:none;" d="M303 133L304 134L303 133z"/>
<path style="fill:#6c6a67; stroke:none;" d="M271 134L272 135L271 134z"/>
<path style="fill:#b4b0a8; stroke:none;" d="M272 134L273 135L272 134z"/>
<path style="fill:#6c6a67; stroke:none;" d="M305 134L306 135L305 134M273 135L274 136L273 135z"/>
<path style="fill:#b4b0a8; stroke:none;" d="M306 135L307 136L306 135M275 136L276 137L275 136z"/>
<path style="fill:#6c6a67; stroke:none;" d="M308 136L309 137L308 136z"/>
<path style="fill:#97938d; stroke:none;" d="M276 137L277 138L276 137M309 137L310 138L309 137z"/>
<path style="fill:#6c6a67; stroke:none;" d="M277 138L278 139L277 138z"/>
<path style="fill:#b4b0a8; stroke:none;" d="M310 138L311 139L310 138M311 139L312 140L311 139M280 140L281 141L280 140z"/>
<path style="fill:#6c6a67; stroke:none;" d="M313 140L314 141L313 140z"/>
<path style="fill:#b4b0a8; stroke:none;" d="M281 141L282 142L281 141z"/>
<path style="fill:#6c6a67; stroke:none;" d="M314 141L315 142L314 141z"/>
<path style="fill:#b4b0a8; stroke:none;" d="M282 142L283 143L282 142z"/>
<path style="fill:#6c6a67; stroke:none;" d="M315 142L316 143L315 142z"/>
<path style="fill:#b4b0a8; stroke:none;" d="M283 143L284 144L283 143z"/>
<path style="fill:#6c6a67; stroke:none;" d="M316 143L317 144L316 143M285 146L286 147L285 146z"/>
<path style="fill:#b4b0a8; stroke:none;" d="M318 146L319 147L318 146z"/>
<path style="fill:#6c6a67; stroke:none;" d="M286 147L287 148L286 147z"/>
<path style="fill:#b4b0a8; stroke:none;" d="M319 147L320 148L319 147M287 148L288 149L287 148z"/>
<path style="fill:#6c6a67; stroke:none;" d="M320 148L321 149L320 148z"/>
<path style="fill:#b4b0a8; stroke:none;" d="M288 149L289 150L288 149z"/>
<path style="fill:#6c6a67; stroke:none;" d="M321 149L322 150L321 149M288 150L289 151L288 150z"/>
<path style="fill:#97938d; stroke:none;" d="M289 151L290 152L289 151M322 151L323 152L322 151z"/>
<path style="fill:#6c6a67; stroke:none;" d="M323 152L324 153L323 152M290 153L291 154L290 153z"/>
<path style="fill:#b4b0a8; stroke:none;" d="M323 153L324 154L323 153M291 154L292 155L291 154z"/>
<path style="fill:#6c6a67; stroke:none;" d="M324 154L325 155L324 154M291 155L292 156L291 155z"/>
<path style="fill:#b4b0a8; stroke:none;" d="M292 156L293 157L292 156z"/>
<path style="fill:#97938d; stroke:none;" d="M325 156L326 157L325 156z"/>
<path style="fill:#6c6a67; stroke:none;" d="M292 157L293 158L292 157z"/>
<path style="fill:#b4b0a8; stroke:none;" d="M293 158L294 159L293 158z"/>
<path style="fill:#97938d; stroke:none;" d="M326 158L327 159L326 158z"/>
<path style="fill:#6c6a67; stroke:none;" d="M293 159L294 160L293 159z"/>
<path style="fill:#b4b0a8; stroke:none;" d="M294 160L295 161L294 160z"/>
<path style="fill:#6c6a67; stroke:none;" d="M327 160L328 161L327 160z"/>
<path style="fill:#97938d; stroke:none;" d="M294 161L295 162L294 161z"/>
<path style="fill:#b4b0a8; stroke:none;" d="M327 161L328 162L327 161z"/>
<path style="fill:#6c6a67; stroke:none;" d="M328 162L329 163L328 162z"/>
<path style="fill:#b4b0a8; stroke:none;" d="M295 163L296 164L295 163z"/>
<path style="fill:#97938d; stroke:none;" d="M328 163L329 164L328 163z"/>
<path style="fill:#6c6a67; stroke:none;" d="M295 164L296 165L295 164z"/>
<path style="fill:#b4b0a8; stroke:none;" d="M328 164L329 165L328 164z"/>
<path style="fill:#6c6a67; stroke:none;" d="M329 165L330 166L329 165z"/>
<path style="fill:#b4b0a8; stroke:none;" d="M296 166L297 167L296 166z"/>
<path style="fill:#97938d; stroke:none;" d="M329 166L330 167L329 166z"/>
<path style="fill:#6c6a67; stroke:none;" d="M296 167L297 168L296 167z"/>
<path style="fill:#b4b0a8; stroke:none;" d="M329 167L330 168L329 167z"/>
<path style="fill:#6c6a67; stroke:none;" d="M330 169L331 170L330 169z"/>
<path style="fill:#97938d; stroke:none;" d="M297 170L298 171L297 170M330 170L331 171L330 170z"/>
<path style="fill:#6c6a67; stroke:none;" d="M297.333 171.667L297.667 172.333L297.333 171.667z"/>
<path style="fill:#b4b0a8; stroke:none;" d="M330 171L331 172L330 171M298 174L299 175L298 174z"/>
<path style="fill:#6c6a67; stroke:none;" d="M331.333 174.667L331.667 175.333L331.333 174.667z"/>
<path style="fill:#97938d; stroke:none;" d="M298.333 175.667L298.667 176.333L298.333 175.667M331 176L332 177L331 176z"/>
<path style="fill:#6c6a67; stroke:none;" d="M298.333 177.667L298.667 178.333L298.333 177.667z"/>
<path style="fill:#b4b0a8; stroke:none;" d="M331 177L331 180L332 180L331 177M299 183L299 189L300 189L299 183M331 188L331 192L332 192L331 188z"/>
<path style="fill:#97938d; stroke:none;" d="M331 192L332 193L331 192z"/>
<path style="fill:#6c6a67; stroke:none;" d="M331.333 193.667L331.667 194.333L331.333 193.667M298.333 194.667L298.667 195.333L298.333 194.667z"/>
<path style="fill:#97938d; stroke:none;" d="M298 196L299 197L298 196z"/>
<path style="fill:#b4b0a8; stroke:none;" d="M298.333 197.667L298.667 198.333L298.333 197.667M330 197L331 198L330 197z"/>
<path style="fill:#97938d; stroke:none;" d="M330 198L331 199L330 198z"/>
<path style="fill:#6c6a67; stroke:none;" d="M330 199L331 200L330 199M297.333 200.667L297.667 201.333L297.333 200.667z"/>
<path style="fill:#b4b0a8; stroke:none;" d="M329 201L330 202L329 201M297 202L298 203L297 202z"/>
<path style="fill:#97938d; stroke:none;" d="M329 202L330 203L329 202z"/>
<path style="fill:#6c6a67; stroke:none;" d="M329 203L330 204L329 203M296 204L297 205L296 204z"/>
<path style="fill:#97938d; stroke:none;" d="M296 205L297 206L296 205z"/>
<path style="fill:#b4b0a8; stroke:none;" d="M328 205L329 206L328 205M296 206L297 207L296 206z"/>
<path style="fill:#6c6a67; stroke:none;" d="M328 206L329 207L328 206z"/>
<path style="fill:#b4b0a8; stroke:none;" d="M327 207L328 208L327 207z"/>
<path style="fill:#97938d; stroke:none;" d="M295 208L296 209L295 208z"/>
<path style="fill:#6c6a67; stroke:none;" d="M327 208L328 209L327 208M294 210L295 211L294 210z"/>
<path style="fill:#97938d; stroke:none;" d="M326 210L327 211L326 210z"/>
<path style="fill:#b4b0a8; stroke:none;" d="M294 211L295 212L294 211z"/>
<path style="fill:#6c6a67; stroke:none;" d="M326 211L327 212L326 211M293 212L294 213L293 212z"/>
<path style="fill:#97938d; stroke:none;" d="M325 212L326 213L325 212z"/>
<path style="fill:#b4b0a8; stroke:none;" d="M293 213L294 214L293 213z"/>
<path style="fill:#6c6a67; stroke:none;" d="M292 214L293 215L292 214z"/>
<path style="fill:#97938d; stroke:none;" d="M324 214L325 215L324 214z"/>
<path style="fill:#b4b0a8; stroke:none;" d="M292 215L293 216L292 215z"/>
<path style="fill:#6c6a67; stroke:none;" d="M291 216L292 217L291 216M323 216L324 217L323 216z"/>
<path style="fill:#b4b0a8; stroke:none;" d="M322 217L323 218L322 217M290 218L291 219L290 218z"/>
<path style="fill:#6c6a67; stroke:none;" d="M289 219L290 220L289 219M321 219L322 220L321 219z"/>
<path style="fill:#97938d; stroke:none;" d="M320 220L321 221L320 220z"/>
<path style="fill:#b4b0a8; stroke:none;" d="M288 221L289 222L288 221M319 221L320 222L319 221z"/>
<path style="fill:#97938d; stroke:none;" d="M287 222L288 223L287 222z"/>
<path style="fill:#b4b0a8; stroke:none;" d="M318 222L319 223L318 222z"/>
<path style="fill:#97938d; stroke:none;" d="M286 223L287 224L286 223z"/>
<path style="fill:#b4b0a8; stroke:none;" d="M317 223L318 224L317 223z"/>
<path style="fill:#6c6a67; stroke:none;" d="M285 224L286 225L285 224z"/>
<path style="fill:#b4b0a8; stroke:none;" d="M316 224L317 225L316 224z"/>
<path style="fill:#6c6a67; stroke:none;" d="M284 225L285 226L284 225z"/>
<path style="fill:#b4b0a8; stroke:none;" d="M315 225L316 226L315 225z"/>
<path style="fill:#6c6a67; stroke:none;" d="M283 226L284 227L283 226z"/>
<path style="fill:#b4b0a8; stroke:none;" d="M314 226L315 227L314 226z"/>
<path style="fill:#6c6a67; stroke:none;" d="M282 227L283 228L282 227z"/>
<path style="fill:#b4b0a8; stroke:none;" d="M313 227L314 228L313 227z"/>
<path style="fill:#6c6a67; stroke:none;" d="M281 228L282 229L281 228z"/>
<path style="fill:#97938d; stroke:none;" d="M312 228L313 229L312 228M280 229L281 230L280 229z"/>
<path style="fill:#6c6a67; stroke:none;" d="M311 229L312 230L311 229z"/>
<path style="fill:#b4b0a8; stroke:none;" d="M279 230L280 231L279 230M309 230L310 231L309 230z"/>
<path style="fill:#6c6a67; stroke:none;" d="M277 231L278 232L277 231M308 231L309 232L308 231z"/>
<path style="fill:#b4b0a8; stroke:none;" d="M276 232L277 233L276 232z"/>
<path style="fill:#97938d; stroke:none;" d="M306 232L307 233L306 232M274 233L275 234L274 233z"/>
<path style="fill:#b4b0a8; stroke:none;" d="M304 233L305 234L304 233z"/>
<path style="fill:#6c6a67; stroke:none;" d="M305 233L306 234L305 233M272 234L273 235L272 234M303 234L304 235L303 234M270 235L271 236L270 235z"/>
<path style="fill:#b4b0a8; stroke:none;" d="M271 235L272 236L271 235z"/>
<path style="fill:#6c6a67; stroke:none;" d="M301 235L302 236L301 235M268 236L269 237L268 236z"/>
<path style="fill:#b4b0a8; stroke:none;" d="M298 236L299 237L298 236z"/>
<path style="fill:#6c6a67; stroke:none;" d="M299 236L300 237L299 236M265 237L266 238L265 237z"/>
<path style="fill:#b4b0a8; stroke:none;" d="M266 237L267 238L266 237z"/>
<path style="fill:#97938d; stroke:none;" d="M296 237L297 238L296 237z"/>
<path style="fill:#6c6a67; stroke:none;" d="M297 237L298 238L297 237M262 238L263 239L262 238z"/>
<path style="fill:#97938d; stroke:none;" d="M263 238L264 239L263 238z"/>
<path style="fill:#b4b0a8; stroke:none;" d="M293 238L294 239L293 238z"/>
<path style="fill:#6c6a67; stroke:none;" d="M294 238L295 239L294 238M258 239L259 240L258 239z"/>
<path style="fill:#b4b0a8; stroke:none;" d="M259 239L260 240L259 239M289 239L290 240L289 239z"/>
<path style="fill:#97938d; stroke:none;" d="M290 239L291 240L290 239z"/>
<path style="fill:#6c6a67; stroke:none;" d="M291 239L292 240L291 239z"/>
<path style="fill:#97938d; stroke:none;" d="M195 240L196 241L195 240M252.667 240.333L253.333 240.667L252.667 240.333z"/>
<path style="fill:#b4b0a8; stroke:none;" d="M254.667 240.333L255.333 240.667L254.667 240.333M285 240L286 241L285 240z"/>
<path style="fill:#6c6a67; stroke:none;" d="M286.667 240.333L287.333 240.667L286.667 240.333z"/>
<path style="fill:#b4b0a8; stroke:none;" d="M278.667 241.333L279.333 241.667L278.667 241.333z"/>
<path style="fill:#97938d; stroke:none;" d="M280 241L281 242L280 241z"/>
<path style="fill:#6c6a67; stroke:none;" d="M281.667 241.333L282.333 241.667L281.667 241.333M275 242L278 244L278 243L275 242z"/>
<path style="fill:#b4b0a8; stroke:none;" d="M282.667 244.333L283.333 244.667L282.667 244.333z"/>
<path style="fill:#97938d; stroke:none;" d="M284.667 244.333L285.333 244.667L284.667 244.333z"/>
<path style="fill:#6c6a67; stroke:none;" d="M286 244L287 245L286 244z"/>
<path style="fill:#b4b0a8; stroke:none;" d="M195 245L195 246L255 246L236 245L195 245M289 245L290 246L289 245z"/>
<path style="fill:#97938d; stroke:none;" d="M290 245L291 246L290 245z"/>
<path style="fill:#6c6a67; stroke:none;" d="M291.667 245.333L292.333 245.667L291.667 245.333M195 246L195 365L196 365L196 282L195 246z"/>
<path style="fill:#272727; stroke:none;" d="M196 246L196 365C223.605 365 258.248 370.304 283 355.547C316.42 335.623 326.423 279.075 290 256.468C263.385 239.948 225.866 246 196 246z"/>
<path style="fill:#6c6a67; stroke:none;" d="M258 246L258 247L261 247L258 246z"/>
<path style="fill:#97938d; stroke:none;" d="M261 246L262 247L261 246z"/>
<path style="fill:#b4b0a8; stroke:none;" d="M262 246L263 247L262 246M295 246L296 247L295 246z"/>
<path style="fill:#97938d; stroke:none;" d="M296 246L297 247L296 246z"/>
<path style="fill:#6c6a67; stroke:none;" d="M297.667 246.333L298.333 246.667L297.667 246.333M265 247L266 248L265 247z"/>
<path style="fill:#97938d; stroke:none;" d="M266 247L267 248L266 247z"/>
<path style="fill:#b4b0a8; stroke:none;" d="M267.667 247.333L268.333 247.667L267.667 247.333M300 247L301 248L300 247z"/>
<path style="fill:#6c6a67; stroke:none;" d="M301.667 247.333L302.333 247.667L301.667 247.333M270 248L271 249L270 248z"/>
<path style="fill:#97938d; stroke:none;" d="M271 248L272 249L271 248M304 248L305 249L304 248z"/>
<path style="fill:#6c6a67; stroke:none;" d="M305 248L306 249L305 248M274 249L275 250L274 249z"/>
<path style="fill:#b4b0a8; stroke:none;" d="M275 249L276 250L275 249z"/>
<path style="fill:#97938d; stroke:none;" d="M307 249L308 250L307 249z"/>
<path style="fill:#6c6a67; stroke:none;" d="M308 249L309 250L308 249z"/>
<path style="fill:#97938d; stroke:none;" d="M277 250L278 251L277 250M310 250L311 251L310 250z"/>
<path style="fill:#6c6a67; stroke:none;" d="M311 250L312 251L311 250M279 251L280 252L279 251z"/>
<path style="fill:#b4b0a8; stroke:none;" d="M280 251L281 252L280 251z"/>
<path style="fill:#97938d; stroke:none;" d="M313 251L314 252L313 251z"/>
<path style="fill:#6c6a67; stroke:none;" d="M282 252L283 253L282 252z"/>
<path style="fill:#b4b0a8; stroke:none;" d="M315 252L316 253L315 252z"/>
<path style="fill:#6c6a67; stroke:none;" d="M316 252L317 253L316 252M284 253L285 254L284 253z"/>
<path style="fill:#b4b0a8; stroke:none;" d="M285 253L286 254L285 253z"/>
<path style="fill:#6c6a67; stroke:none;" d="M318 253L319 254L318 253M286 254L287 255L286 254z"/>
<path style="fill:#b4b0a8; stroke:none;" d="M287 254L288 255L287 254z"/>
<path style="fill:#6c6a67; stroke:none;" d="M320 254L321 255L320 254M288 255L289 256L288 255z"/>
<path style="fill:#b4b0a8; stroke:none;" d="M321 255L322 256L321 255z"/>
<path style="fill:#6c6a67; stroke:none;" d="M322 255L323 256L322 255z"/>
<path style="fill:#b4b0a8; stroke:none;" d="M290 256L291 257L290 256M323 256L324 257L323 256z"/>
<path style="fill:#6c6a67; stroke:none;" d="M324 256L325 257L324 256M291 257L292 258L291 257z"/>
<path style="fill:#97938d; stroke:none;" d="M325 257L326 258L325 257z"/>
<path style="fill:#b4b0a8; stroke:none;" d="M293 258L294 259L293 258z"/>
<path style="fill:#6c6a67; stroke:none;" d="M327 258L328 259L327 258z"/>
<path style="fill:#97938d; stroke:none;" d="M294 259L295 260L294 259M328 259L329 260L328 259z"/>
<path style="fill:#6c6a67; stroke:none;" d="M295 260L296 261L295 260M330 260L331 261L330 260M296 261L297 262L296 261M331 261L332 262L331 261M297 262L298 263L297 262z"/>
<path style="fill:#97938d; stroke:none;" d="M332 262L333 263L332 262z"/>
<path style="fill:#6c6a67; stroke:none;" d="M298 263L299 264L298 263z"/>
<path style="fill:#97938d; stroke:none;" d="M333 263L334 264L333 263z"/>
<path style="fill:#6c6a67; stroke:none;" d="M299 264L300 265L299 264z"/>
<path style="fill:#97938d; stroke:none;" d="M334 264L335 265L334 264z"/>
<path style="fill:#6c6a67; stroke:none;" d="M300 265L301 266L300 265z"/>
<path style="fill:#97938d; stroke:none;" d="M335 265L336 266L335 265z"/>
<path style="fill:#6c6a67; stroke:none;" d="M301 266L302 267L301 266z"/>
<path style="fill:#97938d; stroke:none;" d="M336 266L337 267L336 266M302 267L303 268L302 267z"/>
<path style="fill:#6c6a67; stroke:none;" d="M337 267L338 268L337 267z"/>
<path style="fill:#b4b0a8; stroke:none;" d="M303 268L304 269L303 268z"/>
<path style="fill:#6c6a67; stroke:none;" d="M338 268L339 269L338 268M304 270L305 271L304 270z"/>
<path style="fill:#b4b0a8; stroke:none;" d="M339 270L340 271L339 270M305 271L306 272L305 271z"/>
<path style="fill:#97938d; stroke:none;" d="M340 271L341 272L340 271z"/>
<path style="fill:#6c6a67; stroke:none;" d="M341 272L342 273L341 272z"/>
<path style="fill:#97938d; stroke:none;" d="M306 273L307 274L306 273z"/>
<path style="fill:#b4b0a8; stroke:none;" d="M341 273L342 274L341 273z"/>
<path style="fill:#97938d; stroke:none;" d="M342 274L343 275L342 274z"/>
<path style="fill:#6c6a67; stroke:none;" d="M307 275L308 276L307 275z"/>
<path style="fill:#97938d; stroke:none;" d="M343 276L344 277L343 276M308 277L309 278L308 277z"/>
<path style="fill:#6c6a67; stroke:none;" d="M344 278L345 279L344 278z"/>
<path style="fill:#97938d; stroke:none;" d="M309 279L310 280L309 279z"/>
<path style="fill:#b4b0a8; stroke:none;" d="M344 279L345 280L344 279z"/>
<path style="fill:#6c6a67; stroke:none;" d="M309 280L310 281L309 280M345 280L346 281L345 280z"/>
<path style="fill:#97938d; stroke:none;" d="M345 281L346 282L345 281M310 282L311 283L310 282z"/>
<path style="fill:#6c6a67; stroke:none;" d="M310 283L311 284L310 283M346 283L347 284L346 283z"/>
<path style="fill:#97938d; stroke:none;" d="M346 284L347 285L346 284z"/>
<path style="fill:#b4b0a8; stroke:none;" d="M311 285L312 286L311 285z"/>
<path style="fill:#97938d; stroke:none;" d="M311 286L312 287L311 286z"/>
<path style="fill:#6c6a67; stroke:none;" d="M311 287L312 288L311 287M347 287L348 288L347 287z"/>
<path style="fill:#97938d; stroke:none;" d="M347 288L348 289L347 288z"/>
<path style="fill:#b4b0a8; stroke:none;" d="M312.333 289.667L312.667 290.333L312.333 289.667M347 289L348 290L347 289z"/>
<path style="fill:#97938d; stroke:none;" d="M312 291L313 292L312 291z"/>
<path style="fill:#6c6a67; stroke:none;" d="M312.333 292.667L312.667 293.333L312.333 292.667M348 293L348 296L349 296L348 293z"/>
<path style="fill:#97938d; stroke:none;" d="M348.333 296.667L348.667 297.333L348.333 296.667z"/>
<path style="fill:#b4b0a8; stroke:none;" d="M313 298L313 301L314 301L313 298M348 298L348 301L349 301L348 298z"/>
<path style="fill:#97938d; stroke:none;" d="M313.333 301.667L313.667 302.333L313.333 301.667M348 301L348 304L349 304L348 301z"/>
<path style="fill:#b4b0a8; stroke:none;" d="M313 303L313 307L314 307L313 303z"/>
<path style="fill:#6c6a67; stroke:none;" d="M348 304L348 307L349 307L348 304z"/>
<path style="fill:#b4b0a8; stroke:none;" d="M347 309L348 310L347 309z"/>
<path style="fill:#6c6a67; stroke:none;" d="M312.333 310.667L312.667 311.333L312.333 310.667z"/>
<path style="fill:#97938d; stroke:none;" d="M347.333 310.667L347.667 311.333L347.333 310.667M312 312L313 313L312 312z"/>
<path style="fill:#6c6a67; stroke:none;" d="M347 312L348 313L347 312z"/>
<path style="fill:#b4b0a8; stroke:none;" d="M312 313L313 314L312 313M346 314L347 315L346 314z"/>
<path style="fill:#6c6a67; stroke:none;" d="M311.333 315.667L311.667 316.333L311.333 315.667z"/>
<path style="fill:#97938d; stroke:none;" d="M346 315L347 316L346 315z"/>
<path style="fill:#6c6a67; stroke:none;" d="M346 316L347 317L346 316z"/>
<path style="fill:#b4b0a8; stroke:none;" d="M311 317L312 318L311 317M345 318L346 319L345 318z"/>
<path style="fill:#6c6a67; stroke:none;" d="M310 319L311 320L310 319M345 319L346 320L345 319z"/>
<path style="fill:#97938d; stroke:none;" d="M310 320L311 321L310 320z"/>
<path style="fill:#b4b0a8; stroke:none;" d="M344 321L345 322L344 321z"/>
<path style="fill:#6c6a67; stroke:none;" d="M309 322L310 323L309 322M344 322L345 323L344 322z"/>
<path style="fill:#97938d; stroke:none;" d="M309 323L310 324L309 323z"/>
<path style="fill:#b4b0a8; stroke:none;" d="M309 324L310 325L309 324z"/>
<path style="fill:#97938d; stroke:none;" d="M343 324L344 325L343 324z"/>
<path style="fill:#6c6a67; stroke:none;" d="M308 325L309 326L308 325z"/>
<path style="fill:#b4b0a8; stroke:none;" d="M308 326L309 327L308 326z"/>
<path style="fill:#97938d; stroke:none;" d="M342 326L343 327L342 326z"/>
<path style="fill:#6c6a67; stroke:none;" d="M307 327L308 328L307 327z"/>
<path style="fill:#b4b0a8; stroke:none;" d="M307 328L308 329L307 328M341 328L342 329L341 328z"/>
<path style="fill:#97938d; stroke:none;" d="M306 330L307 331L306 330z"/>
<path style="fill:#b4b0a8; stroke:none;" d="M340 330L341 331L340 330M305 332L306 333L305 332z"/>
<path style="fill:#97938d; stroke:none;" d="M339 332L340 333L339 332z"/>
<path style="fill:#6c6a67; stroke:none;" d="M304 333L305 334L304 333z"/>
<path style="fill:#b4b0a8; stroke:none;" d="M304 334L305 335L304 334z"/>
<path style="fill:#6c6a67; stroke:none;" d="M338 334L339 335L338 334z"/>
<path style="fill:#97938d; stroke:none;" d="M303 335L304 336L303 335z"/>
<path style="fill:#b4b0a8; stroke:none;" d="M337 335L338 336L337 335M302 337L303 338L302 337z"/>
<path style="fill:#6c6a67; stroke:none;" d="M336 337L337 338L336 337z"/>
<path style="fill:#97938d; stroke:none;" d="M301 338L302 339L301 338z"/>
<path style="fill:#b4b0a8; stroke:none;" d="M335 338L336 339L335 338z"/>
<path style="fill:#6c6a67; stroke:none;" d="M300 339L301 340L300 339z"/>
<path style="fill:#b4b0a8; stroke:none;" d="M334 339L335 340L334 339M299 341L300 342L299 341z"/>
<path style="fill:#6c6a67; stroke:none;" d="M333 341L334 342L333 341z"/>
<path style="fill:#97938d; stroke:none;" d="M298 342L299 343L298 342M332 342L333 343L332 342z"/>
<path style="fill:#6c6a67; stroke:none;" d="M297 343L298 344L297 343z"/>
<path style="fill:#97938d; stroke:none;" d="M331 343L332 344L331 343z"/>
<path style="fill:#6c6a67; stroke:none;" d="M296 344L297 345L296 344z"/>
<path style="fill:#b4b0a8; stroke:none;" d="M330 344L331 345L330 344z"/>
<path style="fill:#6c6a67; stroke:none;" d="M295 345L296 346L295 345z"/>
<path style="fill:#b4b0a8; stroke:none;" d="M329 345L330 346L329 345z"/>
<path style="fill:#6c6a67; stroke:none;" d="M294 346L295 347L294 346z"/>
<path style="fill:#b4b0a8; stroke:none;" d="M328 346L329 347L328 346z"/>
<path style="fill:#6c6a67; stroke:none;" d="M293 347L294 348L293 347z"/>
<path style="fill:#b4b0a8; stroke:none;" d="M327 347L328 348L327 347z"/>
<path style="fill:#6c6a67; stroke:none;" d="M292 348L293 349L292 348z"/>
<path style="fill:#b4b0a8; stroke:none;" d="M326 348L327 349L326 348z"/>
<path style="fill:#97938d; stroke:none;" d="M291 349L292 350L291 349z"/>
<path style="fill:#b4b0a8; stroke:none;" d="M325 349L326 350L325 349M290 350L291 351L290 350z"/>
<path style="fill:#97938d; stroke:none;" d="M324 350L325 351L324 350z"/>
<path style="fill:#b4b0a8; stroke:none;" d="M289 351L290 352L289 351z"/>
<path style="fill:#97938d; stroke:none;" d="M323 351L324 352L323 351z"/>
<path style="fill:#6c6a67; stroke:none;" d="M287 352L288 353L287 352M322 352L323 353L322 352z"/>
<path style="fill:#97938d; stroke:none;" d="M286 353L287 354L286 353z"/>
<path style="fill:#b4b0a8; stroke:none;" d="M320 353L321 354L320 353z"/>
<path style="fill:#6c6a67; stroke:none;" d="M284 354L285 355L284 354z"/>
<path style="fill:#97938d; stroke:none;" d="M319 354L320 355L319 354z"/>
<path style="fill:#b4b0a8; stroke:none;" d="M283 355L284 356L283 355M317 355L318 356L317 355z"/>
<path style="fill:#6c6a67; stroke:none;" d="M318 355L319 356L318 355z"/>
<path style="fill:#97938d; stroke:none;" d="M281 356L282 357L281 356M316 356L317 357L316 356M279 357L280 358L279 357z"/>
<path style="fill:#b4b0a8; stroke:none;" d="M314 357L315 358L314 357z"/>
<path style="fill:#6c6a67; stroke:none;" d="M277 358L278 359L277 358M313 358L314 359L313 358z"/>
<path style="fill:#97938d; stroke:none;" d="M275 359L276 360L275 359M311 359L312 360L311 359z"/>
<path style="fill:#6c6a67; stroke:none;" d="M272 360L273 361L272 360z"/>
<path style="fill:#b4b0a8; stroke:none;" d="M273 360L274 361L273 360M309 360L310 361L309 360z"/>
<path style="fill:#6c6a67; stroke:none;" d="M269 361L270 362L269 361z"/>
<path style="fill:#97938d; stroke:none;" d="M270 361L271 362L270 361M307 361L308 362L307 361z"/>
<path style="fill:#6c6a67; stroke:none;" d="M265.667 362.333L266.333 362.667L265.667 362.333z"/>
<path style="fill:#b4b0a8; stroke:none;" d="M267 362L268 363L267 362M304 362L305 363L304 362z"/>
<path style="fill:#6c6a67; stroke:none;" d="M305 362L306 363L305 362M260.667 363.333L261.333 363.667L260.667 363.333z"/>
<path style="fill:#97938d; stroke:none;" d="M262 363L263 364L262 363z"/>
<path style="fill:#b4b0a8; stroke:none;" d="M263 363L264 364L263 363M302 363L303 364L302 363z"/>
<path style="fill:#6c6a67; stroke:none;" d="M303 363L304 364L303 363M250 364L250 365L255 365L250 364z"/>
<path style="fill:#97938d; stroke:none;" d="M255 364L256 365L255 364z"/>
<path style="fill:#b4b0a8; stroke:none;" d="M256.667 364.333L257.333 364.667L256.667 364.333M299 364L300 365L299 364z"/>
<path style="fill:#6c6a67; stroke:none;" d="M300 364L301 365L300 364z"/>
<path style="fill:#97938d; stroke:none;" d="M296 365L297 366L296 365z"/>
<path style="fill:#6c6a67; stroke:none;" d="M297 365L298 366L297 365z"/>
<path style="fill:#b4b0a8; stroke:none;" d="M292 366L293 367L292 366z"/>
<path style="fill:#97938d; stroke:none;" d="M293 366L294 367L293 366z"/>
<path style="fill:#6c6a67; stroke:none;" d="M294 366L295 367L294 366z"/>
<path style="fill:#b4b0a8; stroke:none;" d="M287 367L288 368L287 367z"/>
<path style="fill:#97938d; stroke:none;" d="M288 367L289 368L288 367z"/>
<path style="fill:#6c6a67; stroke:none;" d="M289 367L290 368L289 367z"/>
<path style="fill:#b4b0a8; stroke:none;" d="M281.667 368.333L282.333 368.667L281.667 368.333z"/>
<path style="fill:#97938d; stroke:none;" d="M283 368L284 369L283 368z"/>
<path style="fill:#6c6a67; stroke:none;" d="M284.667 368.333L285.333 368.667L284.667 368.333z"/>
<path style="fill:#b4b0a8; stroke:none;" d="M269 369L269 370L274 370L269 369z"/>
<path style="fill:#97938d; stroke:none;" d="M274 369L274 370L277 370L274 369z"/>
<path style="fill:#6c6a67; stroke:none;" d="M277.667 369.333L278.333 369.667L277.667 369.333z"/>
</svg>
